<?xml version="1.0" standalone="no"?>
<!DOCTYPE svg PUBLIC "-//W3C//DTD SVG 20010904//EN"
 "http://www.w3.org/TR/2001/REC-SVG-20010904/DTD/svg10.dtd">
<svg version="1.0" xmlns="http://www.w3.org/2000/svg"
 width="1417.000000pt" height="1417.000000pt" viewBox="0 0 1417.000000 1417.000000"
 preserveAspectRatio="xMidYMid meet">

<g transform="translate(0.000000,1417.000000) scale(0.100000,-0.100000)"
fill="#003E6D" stroke="none">
<path d="M7982 13459 c-4 -55 -55 -208 -103 -309 -130 -270 -352 -574 -648
-885 -58 -60 -270 -276 -471 -480 -201 -203 -423 -429 -495 -502 -71 -73 -324
-327 -560 -565 -1288 -1296 -1358 -1369 -1526 -1578 -205 -255 -409 -593 -494
-820 -15 -41 -31 -79 -35 -85 -6 -8 -51 -153 -75 -245 -33 -120 -55 -318 -55
-483 0 -237 33 -575 69 -717 9 -35 9 -35 10 15 1 43 14 145 25 210 16 89 75
315 86 330 4 6 15 35 25 65 73 224 282 586 475 825 137 168 286 320 1930 1970
581 583 1090 1098 1131 1145 86 98 231 278 256 318 10 15 20 29 24 32 9 7 109
164 161 250 75 127 173 335 206 440 77 244 84 293 82 545 -2 200 -15 573 -18
524z"/>
<path d="M8006 12030 c-16 -104 -87 -303 -156 -435 -149 -288 -239 -395 -774
-930 -437 -436 -1531 -1546 -2307 -2340 -189 -193 -325 -345 -396 -441 -118
-160 -155 -211 -209 -296 -35 -53 -87 -141 -115 -195 -29 -54 -60 -111 -69
-128 -10 -16 -30 -59 -45 -95 -15 -36 -35 -83 -45 -105 -36 -81 -101 -303
-122 -415 -18 -96 -22 -154 -22 -350 -1 -389 43 -594 179 -825 45 -77 139
-195 156 -195 3 0 -12 51 -32 113 -21 61 -44 144 -51 182 -17 90 -17 388 0
480 17 91 79 312 97 344 8 14 25 53 39 86 36 86 173 337 188 343 4 2 8 8 8 14
0 15 218 303 290 383 35 39 679 689 1430 1445 1203 1209 1432 1445 1488 1526
7 11 40 57 73 104 33 47 72 105 85 130 14 25 43 77 65 115 61 105 134 275 179
415 80 246 98 439 83 885 -7 189 -10 228 -17 185z"/>
<path d="M8012 10589 c-7 -49 -21 -115 -31 -147 -10 -31 -29 -88 -41 -127 -53
-167 -199 -422 -321 -561 -55 -63 -326 -367 -571 -641 -76 -84 -584 -596
-1130 -1137 -974 -965 -1062 -1054 -1185 -1206 -68 -83 -225 -301 -245 -340
-7 -14 -22 -41 -34 -60 -45 -74 -112 -211 -139 -281 -15 -41 -31 -78 -35 -84
-34 -46 -85 -431 -77 -575 10 -161 49 -396 77 -455 5 -11 21 -51 35 -89 71
-194 208 -344 403 -443 72 -36 229 -90 238 -80 1 1 -21 17 -49 36 -123 82
-260 259 -301 386 -25 80 -46 192 -46 250 0 90 62 363 90 400 5 6 22 44 38 85
38 94 164 342 221 435 131 215 238 334 656 735 450 431 933 917 1445 1455 134
141 334 358 365 396 151 183 306 403 407 574 37 61 148 287 148 299 0 4 9 27
20 51 18 39 75 250 85 315 2 14 9 61 16 105 17 108 16 532 0 655 -8 52 -13
103 -13 112 0 10 -3 20 -7 22 -4 3 -12 -36 -19 -85z"/>
<path d="M8982 9580 c70 -36 89 -50 156 -120 72 -75 127 -177 153 -286 18 -77
20 -109 16 -239 -3 -83 -13 -183 -22 -225 -25 -113 -97 -315 -154 -432 -42
-87 -160 -280 -181 -298 -4 -3 -31 -39 -62 -80 -86 -117 -144 -179 -537 -575
-422 -426 -501 -511 -672 -730 -136 -174 -229 -315 -307 -470 -43 -85 -107
-265 -122 -344 -11 -57 -16 -1029 -5 -1039 4 -4 6 0 4 8 -9 52 90 332 174 495
54 106 195 328 256 405 157 198 286 339 513 560 408 399 809 799 865 865 202
238 214 253 310 398 87 130 198 353 242 482 25 77 55 200 77 328 3 17 8 116
11 219 4 162 2 201 -16 300 -29 152 -45 207 -93 312 -88 198 -233 354 -395
427 -38 17 -77 35 -88 40 -25 11 -119 29 -154 29 -21 0 -16 -6 31 -30z"/>
<path d="M9812 8720 c106 -258 113 -294 113 -555 -1 -168 -4 -217 -23 -308
-13 -60 -27 -116 -32 -125 -5 -9 -21 -55 -35 -102 -45 -146 -177 -395 -289
-546 -17 -23 -40 -55 -51 -70 -35 -51 -174 -195 -905 -939 -564 -574 -717
-732 -765 -790 -28 -33 -53 -62 -56 -65 -18 -17 -192 -254 -219 -300 -18 -30
-38 -62 -45 -70 -32 -37 -169 -322 -205 -428 -67 -193 -70 -228 -69 -726 l0
-441 30 115 c49 184 142 394 250 560 16 25 32 52 36 60 3 8 9 17 13 20 3 3 22
28 40 55 32 46 167 224 180 235 3 3 16 19 29 35 12 17 275 284 584 595 763
767 1113 1141 1298 1385 153 201 305 472 359 640 12 39 26 75 30 80 10 14 25
80 56 237 14 73 29 151 34 173 5 22 14 113 20 202 12 161 3 373 -19 463 -52
206 -121 359 -217 478 -61 75 -154 161 -142 132z"/>
<path d="M10250 7138 c-1 -151 -78 -519 -135 -643 -8 -16 -26 -61 -40 -100
-28 -75 -137 -288 -189 -370 -18 -27 -45 -70 -61 -95 -26 -42 -148 -209 -186
-255 -236 -286 -424 -477 -1009 -1025 -348 -325 -661 -671 -906 -1000 -108
-145 -223 -316 -298 -445 l-46 -80 327 -3 328 -2 18 22 c98 121 462 491 722
733 186 174 280 263 459 435 78 75 179 171 224 215 186 178 456 476 511 563
72 118 201 370 236 462 15 41 31 80 36 85 28 36 116 384 140 552 21 152 21
423 -1 566 -21 139 -48 267 -60 282 -4 6 -17 40 -29 77 -13 37 -27 70 -32 73
-5 4 -9 -17 -9 -47z"/>
<path d="M5510 3940 c-47 -5 -112 -14 -145 -19 -169 -27 -502 -82 -520 -86
-11 -2 -114 -20 -230 -39 -115 -19 -223 -37 -240 -41 -16 -4 -122 -22 -235
-41 -113 -19 -214 -36 -225 -38 -26 -6 -397 -69 -655 -111 -113 -19 -223 -39
-245 -44 -22 -6 -112 -22 -200 -36 -88 -13 -182 -29 -210 -35 -27 -6 -131 -24
-230 -40 -99 -16 -202 -34 -230 -40 -27 -6 -120 -22 -205 -36 -104 -17 -161
-31 -172 -42 -9 -9 -56 -72 -105 -139 -227 -313 -258 -358 -262 -367 -2 -6 -9
-16 -15 -22 -6 -7 -51 -69 -101 -138 -49 -70 -134 -187 -187 -261 -54 -74 -98
-137 -98 -140 0 -3 -7 -13 -16 -22 -22 -25 -194 -263 -194 -268 0 -3 -45 -67
-100 -142 -55 -76 -146 -202 -202 -281 -57 -79 -135 -187 -174 -240 -39 -53
-79 -110 -89 -127 -11 -16 -22 -32 -25 -35 -3 -3 -24 -33 -48 -67 l-43 -63 33
6 c18 4 85 17 148 31 63 13 195 39 292 58 97 18 187 37 200 41 13 4 100 22
193 40 94 17 181 35 195 38 14 4 88 18 165 32 128 23 184 34 255 50 14 3 108
22 210 40 102 19 280 53 395 75 460 86 906 166 1310 234 116 20 219 37 230 39
180 36 1051 157 1305 181 184 17 420 19 545 4 184 -22 414 -101 555 -192 90
-58 83 -53 181 -147 129 -124 239 -292 284 -434 l23 -70 6 115 c4 62 7 412 9
776 l2 661 -392 -5 -393 -6 0 296 0 297 163 2 c89 1 189 3 222 4 33 1 141 2
239 3 l179 1 -7 90 c-8 101 -24 200 -36 215 -4 6 -15 34 -25 63 -38 117 -146
239 -275 309 -63 34 -185 80 -240 90 -8 1 -35 7 -60 13 -61 14 -405 21 -510
10z"/>
<path d="M8941 3807 c-301 -271 -572 -553 -836 -868 -112 -133 -230 -281 -256
-321 -13 -20 -55 -80 -93 -133 -145 -205 -316 -525 -371 -695 -15 -47 -31 -89
-35 -95 -11 -14 -60 -235 -77 -340 -3 -16 -7 -97 -9 -180 -4 -145 -4 -149 13
-127 144 188 321 356 503 475 133 87 286 166 380 196 36 12 72 25 80 30 24 13
135 39 270 62 122 21 372 29 485 15 22 -2 153 -16 290 -31 138 -14 275 -30
305 -35 30 -5 168 -25 305 -45 138 -19 270 -39 295 -45 25 -6 144 -26 265 -45
239 -38 541 -90 895 -154 403 -73 1008 -186 1050 -196 14 -3 108 -22 210 -41
102 -19 194 -37 205 -39 11 -3 99 -20 195 -38 96 -19 186 -37 199 -41 13 -5
103 -23 200 -42 238 -45 561 -111 589 -119 12 -4 22 -5 22 -1 0 3 -33 51 -72
105 -80 110 -251 347 -389 541 -122 172 -280 392 -364 508 -39 53 -85 118
-103 145 -17 26 -36 53 -42 60 -15 18 -136 185 -168 232 -28 41 -180 254 -207
290 -21 29 -180 251 -249 350 -43 61 -69 88 -90 95 -17 5 -119 23 -226 40
-107 17 -213 35 -235 40 -22 6 -137 26 -255 46 -118 20 -316 53 -440 74 -124
21 -317 54 -430 73 -113 20 -218 38 -235 42 -29 6 -254 45 -610 104 -99 17
-241 42 -315 56 -74 13 -205 36 -290 50 -85 13 -188 31 -229 39 l-74 13 -56
-50z"/>
<path d="M7220 2226 c0 -177 -2 -352 -5 -387 l-5 -64 19 70 c37 138 73 251 99
310 49 109 124 249 167 310 23 33 45 66 49 73 6 9 -29 12 -158 12 l-166 0 0
-324z"/>
</g>
</svg>
